<svg xmlns="http://www.w3.org/2000/svg" xmlns:xlink="http://www.w3.org/1999/xlink" width="64" zoomAndPan="magnify" viewBox="0 0 48 48" height="64" preserveAspectRatio="xMidYMid meet" version="1.0"><defs><clipPath id="c3f5b364c5"><path d="M 6.75 0 L 41.28125 0 L 41.28125 47.019531 L 6.75 47.019531 Z M 6.75 0 " clip-rule="nonzero"/></clipPath></defs><g clip-path="url(#c3f5b364c5)"><path fill="#9d76c1" d="M 24.015625 0 C 23.101562 0 22.195312 0.0703125 21.292969 0.214844 C 20.390625 0.355469 19.507812 0.570312 18.640625 0.855469 C 17.773438 1.136719 16.933594 1.488281 16.121094 1.902344 C 15.308594 2.320312 14.535156 2.796875 13.796875 3.335938 C 13.0625 3.878906 12.375 4.472656 11.730469 5.121094 C 11.089844 5.769531 10.503906 6.460938 9.972656 7.203125 C 9.441406 7.945312 8.972656 8.722656 8.5625 9.539062 C 8.15625 10.355469 7.816406 11.199219 7.542969 12.070312 C 7.480469 12.265625 7.457031 12.46875 7.476562 12.675781 C 7.492188 12.882812 7.550781 13.082031 7.648438 13.265625 C 7.742188 13.449219 7.871094 13.609375 8.03125 13.742188 C 8.191406 13.875 8.371094 13.972656 8.570312 14.035156 C 8.765625 14.097656 8.96875 14.121094 9.179688 14.101562 C 9.386719 14.082031 9.582031 14.027344 9.765625 13.929688 C 9.949219 13.832031 10.109375 13.707031 10.242188 13.546875 C 10.378906 13.386719 10.476562 13.207031 10.539062 13.007812 C 10.789062 12.210938 11.105469 11.441406 11.492188 10.699219 C 11.878906 9.957031 12.332031 9.253906 12.84375 8.589844 C 13.355469 7.929688 13.921875 7.316406 14.542969 6.757812 C 15.164062 6.195312 15.832031 5.691406 16.542969 5.25 C 17.253906 4.808594 17.996094 4.429688 18.773438 4.121094 C 19.550781 3.808594 20.351562 3.570312 21.171875 3.402344 C 21.992188 3.230469 22.820312 3.136719 23.660156 3.117188 C 24.496094 3.09375 25.328125 3.148438 26.15625 3.273438 C 26.984375 3.402344 27.796875 3.601562 28.585938 3.871094 C 29.378906 4.144531 30.144531 4.480469 30.875 4.886719 C 31.605469 5.296875 32.296875 5.761719 32.945312 6.292969 C 33.59375 6.820312 34.191406 7.40625 34.738281 8.039062 C 35.28125 8.675781 35.765625 9.355469 36.191406 10.074219 C 36.617188 10.796875 36.972656 11.550781 37.261719 12.335938 C 37.550781 13.121094 37.769531 13.925781 37.917969 14.75 C 38.0625 15.574219 38.136719 16.402344 38.136719 17.242188 L 38.136719 29.78125 C 38.136719 30.707031 38.042969 31.625 37.863281 32.53125 C 37.683594 33.441406 37.414062 34.320312 37.058594 35.179688 C 36.707031 36.035156 36.269531 36.847656 35.753906 37.617188 C 35.238281 38.386719 34.65625 39.097656 34 39.753906 C 33.34375 40.410156 32.628906 40.992188 31.859375 41.507812 C 31.089844 42.023438 30.273438 42.457031 29.417969 42.8125 C 28.5625 43.167969 27.679688 43.433594 26.769531 43.613281 C 25.859375 43.796875 24.941406 43.886719 24.015625 43.886719 C 23.085938 43.886719 22.167969 43.796875 21.261719 43.613281 C 20.351562 43.433594 19.46875 43.167969 18.609375 42.8125 C 17.753906 42.457031 16.941406 42.023438 16.171875 41.507812 C 15.398438 40.992188 14.6875 40.410156 14.03125 39.753906 C 13.375 39.097656 12.789062 38.386719 12.273438 37.617188 C 11.757812 36.847656 11.324219 36.035156 10.96875 35.179688 C 10.613281 34.320312 10.347656 33.441406 10.164062 32.53125 C 9.984375 31.625 9.894531 30.707031 9.894531 29.78125 L 9.894531 18.808594 C 9.894531 18.601562 9.855469 18.398438 9.773438 18.207031 C 9.695312 18.015625 9.582031 17.847656 9.433594 17.699219 C 9.289062 17.554688 9.117188 17.441406 8.925781 17.359375 C 8.734375 17.28125 8.535156 17.242188 8.324219 17.242188 C 8.117188 17.242188 7.917969 17.28125 7.726562 17.359375 C 7.53125 17.441406 7.363281 17.554688 7.214844 17.699219 C 7.070312 17.847656 6.957031 18.015625 6.875 18.207031 C 6.796875 18.398438 6.757812 18.601562 6.757812 18.808594 L 6.757812 29.78125 C 6.757812 30.34375 6.785156 30.90625 6.839844 31.46875 C 6.894531 32.03125 6.976562 32.589844 7.089844 33.144531 C 7.199219 33.695312 7.335938 34.242188 7.5 34.785156 C 7.664062 35.324219 7.855469 35.855469 8.070312 36.378906 C 8.285156 36.898438 8.527344 37.410156 8.792969 37.90625 C 9.0625 38.40625 9.351562 38.886719 9.664062 39.359375 C 9.980469 39.828125 10.316406 40.28125 10.675781 40.71875 C 11.03125 41.152344 11.410156 41.570312 11.8125 41.96875 C 12.210938 42.371094 12.628906 42.75 13.066406 43.105469 C 13.503906 43.464844 13.957031 43.800781 14.425781 44.113281 C 14.898438 44.429688 15.378906 44.71875 15.878906 44.984375 C 16.378906 45.25 16.886719 45.492188 17.410156 45.707031 C 17.933594 45.925781 18.464844 46.113281 19.003906 46.277344 C 19.546875 46.441406 20.09375 46.578125 20.648438 46.6875 C 21.203125 46.800781 21.761719 46.882812 22.324219 46.9375 C 22.886719 46.992188 23.449219 47.019531 24.015625 47.019531 C 24.578125 47.019531 25.144531 46.992188 25.707031 46.9375 C 26.269531 46.882812 26.828125 46.800781 27.382812 46.6875 C 27.9375 46.578125 28.484375 46.441406 29.023438 46.277344 C 29.566406 46.113281 30.097656 45.925781 30.617188 45.707031 C 31.140625 45.492188 31.652344 45.25 32.148438 44.984375 C 32.648438 44.71875 33.132812 44.429688 33.601562 44.113281 C 34.074219 43.800781 34.527344 43.464844 34.964844 43.105469 C 35.398438 42.75 35.816406 42.371094 36.21875 41.96875 C 36.617188 41.570312 36.996094 41.152344 37.355469 40.71875 C 37.714844 40.28125 38.050781 39.828125 38.363281 39.359375 C 38.679688 38.886719 38.96875 38.40625 39.234375 37.90625 C 39.5 37.410156 39.742188 36.898438 39.960938 36.378906 C 40.175781 35.855469 40.367188 35.324219 40.53125 34.785156 C 40.695312 34.242188 40.832031 33.695312 40.941406 33.144531 C 41.050781 32.589844 41.132812 32.03125 41.191406 31.46875 C 41.246094 30.90625 41.273438 30.34375 41.273438 29.78125 L 41.273438 17.242188 C 41.273438 16.675781 41.246094 16.113281 41.191406 15.550781 C 41.132812 14.988281 41.050781 14.429688 40.941406 13.878906 C 40.832031 13.324219 40.695312 12.777344 40.53125 12.234375 C 40.367188 11.695312 40.175781 11.164062 39.960938 10.644531 C 39.742188 10.121094 39.5 9.613281 39.234375 9.113281 C 38.96875 8.617188 38.679688 8.132812 38.363281 7.664062 C 38.050781 7.191406 37.714844 6.738281 37.355469 6.304688 C 36.996094 5.867188 36.617188 5.449219 36.21875 5.050781 C 35.816406 4.652344 35.398438 4.273438 34.964844 3.914062 C 34.527344 3.554688 34.074219 3.21875 33.601562 2.90625 C 33.132812 2.59375 32.648438 2.300781 32.148438 2.035156 C 31.652344 1.769531 31.140625 1.527344 30.617188 1.3125 C 30.097656 1.097656 29.566406 0.90625 29.023438 0.742188 C 28.484375 0.578125 27.9375 0.441406 27.382812 0.332031 C 26.828125 0.222656 26.269531 0.136719 25.707031 0.0820312 C 25.144531 0.0273438 24.578125 0 24.015625 0 Z M 24.015625 0 " fill-opacity="1" fill-rule="nonzero"/></g><path fill="#9d76c1" d="M 25.582031 20.375 L 25.582031 9.402344 C 25.582031 9.195312 25.542969 8.996094 25.464844 8.804688 C 25.382812 8.613281 25.269531 8.441406 25.125 8.296875 C 24.976562 8.148438 24.808594 8.035156 24.613281 7.957031 C 24.421875 7.875 24.222656 7.835938 24.015625 7.835938 C 23.808594 7.835938 23.605469 7.875 23.414062 7.957031 C 23.222656 8.035156 23.050781 8.148438 22.90625 8.296875 C 22.757812 8.441406 22.644531 8.613281 22.566406 8.804688 C 22.484375 8.996094 22.445312 9.195312 22.445312 9.402344 L 22.445312 20.375 C 22.445312 20.582031 22.484375 20.785156 22.566406 20.976562 C 22.644531 21.167969 22.757812 21.335938 22.90625 21.484375 C 23.050781 21.628906 23.222656 21.742188 23.414062 21.824219 C 23.605469 21.902344 23.808594 21.941406 24.015625 21.941406 C 24.222656 21.941406 24.421875 21.902344 24.613281 21.824219 C 24.808594 21.742188 24.976562 21.628906 25.125 21.484375 C 25.269531 21.335938 25.382812 21.167969 25.464844 20.976562 C 25.542969 20.785156 25.582031 20.582031 25.582031 20.375 Z M 25.582031 20.375 " fill-opacity="1" fill-rule="nonzero"/></svg>